<?xml version="1.0" encoding="utf-8"?>
<!-- Generator: Adobe Illustrator 24.0.1, SVG Export Plug-In . SVG Version: 6.00 Build 0)  -->
<svg version="1.1" id="Calque_1" xmlns="http://www.w3.org/2000/svg" xmlns:xlink="http://www.w3.org/1999/xlink" x="0px" y="0px"
	 viewBox="0 0 830.4 159.4" style="enable-background:new 0 0 830.4 159.4;" xml:space="preserve">
<style type="text/css">
	.st0{fill:#FFFFFF;}
	.st1{enable-background:new    ;}
</style>
<g>
	<g>
		<g>
			<g>
				<circle class="st0" cx="134.6" cy="32.7" r="18.2"/>
				<circle class="st0" cx="87.8" cy="79.2" r="18.2"/>
				<path class="st0" d="M116.4,30.4c0,0,1.5,29-32.5,30.9L106,81.1c0,0-2.8-31.6,30.6-30.3L116.4,30.4z"/>
			</g>
			<g>
				<circle class="st0" cx="181.5" cy="80.5" r="18.2"/>
				<circle class="st0" cx="134.6" cy="127" r="18.2"/>
				<path class="st0" d="M163.3,78.2c0,0,1.5,29-32.5,30.9l22.1,19.8c0,0-2.8-31.6,30.6-30.3L163.3,78.2z"/>
			</g>
			<g>
				<circle class="st0" cx="135.3" cy="33.3" r="18.2"/>
				<circle class="st0" cx="181.8" cy="80.2" r="18.2"/>
				<path class="st0" d="M133,51.5c0,0,29-1.5,30.9,32.5l19.8-22.1c0,0-31.6,2.8-30.3-30.6L133,51.5z"/>
			</g>
		</g>
		<g>
			<g>
				<circle class="st0" cx="88.1" cy="127" r="18.2"/>
				<circle class="st0" cx="135" cy="80.5" r="18.2"/>
				<path class="st0" d="M106.3,129.3c0,0-1.5-29,32.5-30.9l-22.1-19.8c0,0,2.8,31.6-30.6,30.3L106.3,129.3z"/>
			</g>
			<g>
				<circle class="st0" cx="41.3" cy="79.2" r="18.2"/>
				<circle class="st0" cx="88.1" cy="32.7" r="18.2"/>
				<path class="st0" d="M59.5,81.5c0,0-1.5-29,32.5-30.9L69.9,30.7c0,0,2.8,31.6-30.6,30.3L59.5,81.5z"/>
			</g>
			<g>
				<circle class="st0" cx="87.5" cy="126.4" r="18.2"/>
				<circle class="st0" cx="41" cy="79.5" r="18.2"/>
				<path class="st0" d="M89.8,108.2c0,0-29,1.5-30.9-32.5L39.1,97.8c0,0,31.6-2.8,30.3,30.6L89.8,108.2z"/>
			</g>
		</g>
	</g>
	<g>
		<g class="st1">
			<path class="st0" d="M260.1,110.9l-32.4-46.4v49.4h-4.9V52.6h2.8c3.2,0,4.8,0.8,6.5,3.5l36.6,52l36.3-52c1.6-2.3,4.1-3.5,7.3-3.5
				h2v61.3h-9.1V64.5L272.9,111c-1.6,2.3-3.9,3.5-6.6,3.5C263.7,114.4,261.7,113.2,260.1,110.9z"/>
			<path class="st0" d="M389.1,113.3c-22.6,2.7-38.9,2.2-49-1.5c-10-3.8-15.1-11.2-15.1-22.1c0-16.3,11.2-25.1,33.5-25.1
				c22,0,33.5,8.5,33.5,22.4c0,2-0.9,2.5-2.9,2.5l-55.3,0.2c0,9.7,4.2,16.2,12.5,19.2c8.4,3,22.7,3.4,42.9,1v3.4H389.1z M383.2,86.1
				c0-12.1-8.2-18.2-24.7-18.2c-15.9,0-23,5.6-24.5,18.2H383.2z M356.4,58.4l9.3-14h9.9l-13.4,14H356.4z"/>
			<path class="st0" d="M399.1,89.7c0-16.2,12.4-25.1,34.6-25.1c5.8,0,10.9,0.9,15.6,2.9c4.7,1.9,8,4.3,10,7.4v-25h9.1v61.4
				c-15.1,2.6-26.7,4-34.6,4C411.6,115.1,399.1,106,399.1,89.7z M456.3,109.2c2.4-0.6,3-1.1,3-2.5v-17c0-14.5-8.5-21.7-25.6-21.7
				s-25.4,7.1-25.4,21.7c0,14.9,8.3,21.9,25.6,21.9C441.1,111.6,448.5,110.8,456.3,109.2z"/>
			<path class="st0" d="M479.5,54.2c0-2.7,2-4.1,6-4.1c4.1,0,6.1,1.4,6.1,4.1s-2,4.1-6.1,4.1C481.5,58.3,479.5,56.9,479.5,54.2z
				 M483.8,113.9c-1.9,0-2.9-0.8-2.9-2.5V65.5h8.8v48.4H483.8z"/>
			<path class="st0" d="M556.1,113.3c-36.2,5.5-55.9-2-55.9-23.4s19.9-29.1,55.9-23.6v3.4c-32.1-4.8-46.8,0.9-46.8,20.2
				c0,19.2,14.7,24.9,46.8,20.1V113.3z"/>
			<path class="st0" d="M559.6,99.7c0-10.6,8.6-14.9,30.2-14.9h22.9v-2.6c0.1-5.4-1.1-8.5-4.9-10.8c-1.8-1.2-4.7-1.9-8.5-2.4
				c-7.7-0.9-17.9-0.9-35.3,0.1v-3.6c48.8-2.7,57.7,1.8,57.7,17.1v28.5c-2.1,0-7.1,0.6-15,1.9c-7.8,1.2-14.8,1.8-21,1.8
				C569.1,114.7,559.6,109.6,559.6,99.7z M609.8,108.1c2.3-0.8,2.9-1.8,2.9-4.1V88.5h-23c-7.8,0-13.3,0.8-16.4,2.5
				c-3,1.6-4.6,4.6-4.6,8.7c0,7.9,5.7,11.2,19.6,11.2C597.5,110.9,604.7,110,609.8,108.1z"/>
			<path class="st0" d="M634.8,113.9c-2,0-3-0.8-3-2.5V49.7h9v64.1h-6V113.9z"/>
		</g>
		<g class="st1">
			<path class="st0" d="M657.1,113.9V59c0-4.2,2.5-6.3,7.6-6.3h22c15,0,25.5,1.4,31.6,4.2c6.1,2.8,9.1,7.8,9.1,14.9
				c0,10.2-5.3,17.7-33,17.9l34.7,24.2h-16.2l-32-23.4c-2.8-1.9-2-4.7,2.1-4.7c12.2,0,20.5-1,25-3c4.6-1.9,6.9-5.6,6.9-10.7
				c0-5.8-1.9-9.6-5.9-11.3c-3.9-1.8-11.3-2.7-22.6-2.7h-14.1c-2.1,0-2.8,0.8-2.8,2.5V114h-12.4V113.9z"/>
			<path class="st0" d="M738,113.9V52.6h12.4v25.2h44.8V52.6h12.5v61.3h-12.5V83.2h-44.8v30.7H738z"/>
		</g>
	</g>
</g>
</svg>
